<svg width="200" height="211" viewBox="0 0 200 211" fill="none" xmlns="http://www.w3.org/2000/svg">
<rect x="100" y="111" width="100" height="100" transform="rotate(180 100 111)" fill="#2C6269"/>
<path fill-rule="evenodd" clip-rule="evenodd" d="M100 211C155.228 211 200 166.228 200 111C200 55.7715 155.228 11 100 11C44.7715 11 0 55.7715 0 111C0 166.228 44.7715 211 100 211ZM100 144C118.225 144 133 129.225 133 111C133 92.7746 118.225 78 100 78C81.7746 78 67 92.7746 67 111C67 129.225 81.7746 144 100 144Z" fill="#014E56"/>
<path fill-rule="evenodd" clip-rule="evenodd" d="M100 111H0V115H100V111ZM100 119H0V123H100V119ZM0 127H100V131H0V127ZM100 135H0V139H100V135ZM0 143H100V147H0V143ZM100 151H0V155H100V151Z" fill="#79C8C7"/>
<path fill-rule="evenodd" clip-rule="evenodd" d="M0 -33H4V-29H0V-33ZM11 -33H7V-29H11V-33ZM11 -25H7V-21H11V-25ZM7 -17H11V-13H7V-17ZM11 -9H7V-5H11V-9ZM7 -1H11V3H7V-1ZM11 7H7V11H11V7ZM14 -33H18V-29H14V-33ZM14 -25H18V-21H14V-25ZM18 -17H14V-13H18V-17ZM14 -9H18V-5H14V-9ZM18 -1H14V3H18V-1ZM14 7H18V11H14V7ZM0 -25H4V-21H0V-25ZM21 -33H25V-29H21V-33ZM21 -25H25V-21H21V-25ZM25 -17H21V-13H25V-17ZM21 -9H25V-5H21V-9ZM25 -1H21V3H25V-1ZM21 7H25V11H21V7ZM0 -17H4V-13H0V-17ZM28 -33H32V-29H28V-33ZM28 -25H32V-21H28V-25ZM32 -17H28V-13H32V-17ZM28 -9H32V-5H28V-9ZM32 -1H28V3H32V-1ZM28 7H32V11H28V7ZM0 -9H4V-5H0V-9ZM35 -33H39V-29H35V-33ZM35 -25H39V-21H35V-25ZM39 -17H35V-13H39V-17ZM35 -9H39V-5H35V-9ZM39 -1H35V3H39V-1ZM35 7H39V11H35V7ZM0 -1H4V3H0V-1ZM42 -33H46V-29H42V-33ZM42 -25H46V-21H42V-25ZM46 -17H42V-13H46V-17ZM42 -9H46V-5H42V-9ZM46 -1H42V3H46V-1ZM42 7H46V11H42V7ZM0 7H4V11H0V7ZM49 -33H53V-29H49V-33ZM49 -25H53V-21H49V-25ZM53 -17H49V-13H53V-17ZM49 -9H53V-5H49V-9ZM53 -1H49V3H53V-1ZM49 7H53V11H49V7Z" fill="#79C8C7"/>
</svg>
